Patient4_TMGait_0pt7_01_left_05_EMG.mot
version=1
nRows=13
nColumns=33
inDegrees=no
endheader
time	1LAddLong	2LGlutMax	3LGlutMed	4LIliopsoas	5LSemiMemb	6LBicFemLong	7LRecFem	8LVastMed	9LVastLat	10LGasMed	11LTibAnt	12lTibPost	13LPeroneusLong	14LSol	15LExtDigLong	16LFlexDigLong	17RAddLong	18RGlutMax	19RGlutMed	20RIliopsoas	21RSemiMemb	22RBicFemLong	23RRecFem	24RVastMed	25RVastLat	26RGasMed	27RTibAnt	28RTibPost	29RPeroneusLong	30RSol	31RExtDigLong	32RFlexDigLong
6.59	0.005188	-0.16083	0.4509	-0.006561	-0.007324	0.28107	0.045929	0.017242	-0.067444	-0.064087	-0.013885	-0.005035	-0.031738	0.083466	0.00351	-0.009308	-0.069275	-0.087585	-0.016937	0.07019	0.35751	0.11261	-0.9079	0.18448	0.29739	-0.007324	0.50079	-0.005341	0.43213	-0.11673	0.002136	-0.005798
6.591	0.002441	-0.14236	0.44754	-0.012512	-0.074615	0.15762	0.070648	0.003662	-0.048523	-0.19699	-0.012665	-0.13534	0.011139	-0.29297	-0.041199	-0.038605	-0.056	-0.18341	0.14175	0.10498	0.28809	0.13809	-0.64499	0.53604	0.41245	-0.007629	0.82214	-0.001373	0.065765	-0.14679	0.002594	-0.001526
6.592	0.008087	-0.16525	0.44998	-0.011902	-0.08728	0.061035	0.065002	0.006256	-0.044861	0.1471	0.006714	-0.032501	0.045776	-0.29709	-0.020905	-0.075378	-0.028076	-0.48035	0.050049	0.07843	0.10422	0.097961	-0.33066	0.3125	0.16647	-0.001526	-0.1387	-0.001526	-0.014801	-0.1767	-0.00061	-0.000763
6.593	0.020447	-0.18021	0.44037	0.002899	-0.027466	-0.05722	0.078735	-0.000153	-0.043182	0.36331	-0.012512	-0.0177	0.11551	-0.74509	-0.031738	-0.16205	0.006714	-0.78583	-0.22659	0.05127	-0.01709	0.056305	-0.16113	0.15808	0.17166	-0.001373	-0.78949	-0.003815	-0.082092	-0.18936	-0.000305	-0.007019
6.594	0.020599	-0.25497	0.42129	-0.001984	0.02121	-0.046692	0.1033	-0.000305	-0.050812	0.22751	-0.001984	-0.000153	0.14755	-0.71106	-0.03067	0.027008	0.059509	-0.97824	-0.31097	-0.086975	-0.21515	0.018311	-0.053101	-0.21408	0.43533	-0.010529	-0.3302	-0.000305	-0.093384	-0.15732	0.00061	-0.006866
6.595	0.004425	-0.242	0.4274	-0.001678	0.046234	-0.011139	0.1088	0.003662	-0.057831	-0.62988	-0.013733	-0.29159	0.1889	-0.20599	-0.015564	0.061798	0.075378	-1.0379	0.27252	-0.12558	-0.076294	0.1294	-0.049133	-0.51575	0.88013	0.007935	0.019379	-0.002899	0.19699	-0.17975	-0.003052	-0.000458
6.596	0.004578	-0.22766	0.41916	-0.012817	0.073853	0.036163	0.088348	0.010986	-0.066376	-1.3196	-0.004578	0.058899	0.16968	0.27191	-0.034637	0.12802	0.089874	-0.85724	0.37247	-0.02121	-0.080261	0.20462	-0.024109	-0.76111	0.71137	-0.000458	0.17242	-0.002899	0.3067	-0.18707	0.001984	-0.011139
6.597	0.005798	-0.224	0.4042	-0.001373	0.019073	0.095215	0.089874	0.006866	-0.053711	-0.89355	-0.013428	-0.061493	0.094147	0.5574	-0.068665	-0.022736	0.091858	-0.76141	-0.10498	0.04776	-0.16296	0.26871	-0.052795	-0.90515	0.17395	0.003815	0.38147	0.000458	0.31448	-0.1767	0.001678	-0.006561
6.598	-0.00473	-0.23239	0.39612	-0.002289	-0.001221	0.08728	0.1059	0.018158	-0.057678	-0.47211	0.016632	-0.1384	0.10559	0.78171	-0.026855	-0.012665	0.050049	-0.67276	-0.35996	-0.012512	0.088806	0.27603	-0.078125	-0.67764	-0.033875	-0.007935	0.45914	-0.000916	0.045929	-0.13794	0.001221	-0.006409
6.599	0.002594	-0.19821	0.39322	0.006714	-0.004425	0.10071	0.10086	0.014343	-0.042572	-0.13748	-0.00885	-0.17441	-0.046539	0.72754	-0.015259	-0.16495	-0.010223	-0.4216	-0.30365	0.000763	0.28442	0.2803	-0.37064	-0.24277	-0.17899	-0.014801	0.55115	-0.000916	-0.052795	-0.11734	-0.000916	-0.010681
6.6	-0.001831	-0.20996	0.40817	-0.004883	-0.005188	0.1059	0.11566	0.009613	-0.046234	-0.03479	-0.014954	0.23651	-0.16327	0.5098	-0.005035	-0.018005	-0.012054	-0.31143	-0.1976	0.063629	0.41077	0.21774	-0.4776	0.089417	-0.21347	-0.010071	0.054779	-0.003815	0.019073	-0.091553	0.001068	-0.000763
6.601	-0.00061	-0.17197	0.42297	-0.001221	-0.004578	0.076599	0.14633	0.011749	-0.045776	-0.16922	-0.006104	0.31693	-0.15961	0.3447	0.012665	0.18265	0.016479	-0.19272	-0.34256	0.10101	0.29816	0.27741	-0.32486	0.1207	-0.13809	-0.014343	-0.38361	-0.00351	0.006256	0.024872	0.000305	-0.005798
6.602	0.000153	-0.16586	0.41351	0.001373	-0.013733	0.092773	0.13779	0.011597	-0.041351	-0.27863	-0.009613	0.24139	-0.036774	0.020905	0.028381	-0.70923	0.024567	-0.17425	-0.51666	0.12833	-0.062103	0.36209	-0.078125	0.054932	-0.31433	-0.003815	-0.79056	-0.001984	0.050201	0.085297	-0.006409	0.002136
